<?xml version="1.0" encoding="UTF-8"?>
<svg width="278px" height="91px" viewBox="0 0 278 91" version="1.1" xmlns="http://www.w3.org/2000/svg" xmlns:xlink="http://www.w3.org/1999/xlink">
    <!-- Generator: Sketch 52.4 (67378) - http://www.bohemiancoding.com/sketch -->
    <title>gray version</title>
    <desc>Created with Sketch.</desc>
    <g id="changes-1" stroke="none" stroke-width="1" fill="none" fill-rule="evenodd">
        <g id="Page-1-Copy-3">
            <path d="M169.033399,11 L169.033399,33.9457421 C169.033399,43.5050613 169.21919,53.0860843 169.033399,62.6429919 C168.893453,69.798012 164.656463,76.5695984 157.572294,78.3203718 C154.319753,79.125824 150.801797,78.9738974 147.484109,78.9738974 L108,78.9738974 L108,90.8941079 L138.877423,90.8941079 C148.905286,90.8941079 159.54843,92.1095208 168.362623,86.3049595 C175.463682,81.6241728 180.149464,73.7915117 180.856433,65.3173826 C181.104958,62.3391386 180.955361,59.2981948 180.955361,56.3151277 L180.955361,11 L169.033399,11 Z" id="Fill-1" fill="#5B6B78"></path>
            <polygon id="Fill-3" fill="#DD3B35" points="97 91 102 91 102 79 97 79"></polygon>
            <polygon id="Fill-5" fill="#5B6B78" points="193 5 205 5 205 0 193 0"></polygon>
            <path d="M148.072661,38.7903175 L148.072661,38.8933194 L148.072661,38.9987738 L148.072661,39.1042282 L148.072661,39.2096825 L148.072661,39.3126845 L148.067847,39.4156865 L148.065441,39.5186884 L148.063034,39.6216904 L148.055813,39.7222399 L148.053406,39.8252418 L148.046185,39.9257914 L148.038965,40.0312457 L148.034151,40.1317953 L148.02693,40.2298924 L148.019709,40.3353467 L148.012489,40.4334438 L148.005268,40.5388982 L147.993233,40.6345429 L147.981199,40.73264 L147.971571,40.8356419 L147.959537,40.9361915 L147.947502,41.0318361 L147.933061,41.1348381 L147.923433,41.2353876 L147.911399,41.3285799 L147.89455,41.426677 L147.877702,41.5272265 L147.863261,41.6253236 L147.846412,41.7234207 L147.827157,41.8215178 L147.812716,41.9171625 L147.79346,42.0128071 L147.774205,42.1109042 L147.757357,42.2065489 L147.738102,42.3021936 L147.71644,42.4027431 L147.697184,42.4983878 L147.675522,42.5891276 L147.65386,42.6823198 L147.629791,42.7755121 L147.608129,42.8760616 L147.581653,42.9741587 L147.559991,43.0648985 L147.533515,43.1556383 L147.509446,43.251283 L147.485377,43.3469277 L147.458901,43.4376675 L147.430018,43.5259549 L147.403542,43.6289568 L147.374659,43.7221491 L147.345777,43.807984 L147.319301,43.9011763 L147.288011,43.9943685 L147.259128,44.0802035 L147.227838,44.1709433 L147.194142,44.2690404 L147.162852,44.3597802 L147.133969,44.4431627 L147.100272,44.5388074 L147.066576,44.6295472 L147.030472,44.7178346 L146.999183,44.8134793 L146.965486,44.8944094 L146.926975,44.9826968 L146.890872,45.075889 L146.852361,45.1690812 L146.818665,45.2524638 L146.782561,45.3382987 L146.741644,45.4290386 L146.70554,45.5197784 L146.662216,45.6031609 L146.626113,45.6889959 L146.585195,45.7772833 L146.544278,45.8631182 L146.505767,45.9514056 L146.460036,46.039693 L146.419119,46.1206231 L146.375795,46.2064581 L146.334877,46.292293 L146.289146,46.378128 L146.243415,46.4615105 L146.202498,46.5473455 L146.156767,46.630728 L146.111035,46.7141105 L146.062897,46.7974931 L146.019573,46.8784232 L145.969028,46.9667106 L145.923297,47.0476407 L145.877566,47.1285708 L145.824614,47.2095009 L145.778883,47.2879786 L145.728338,47.3713611 L145.677793,47.4571961 L145.624841,47.5356737 L145.576703,47.6141514 L145.526158,47.6950815 L145.470799,47.7784641 L145.420254,47.8544893 L145.367302,47.9354194 L145.314351,48.0163495 L145.256585,48.0948272 L145.208447,48.1684 L145.150681,48.2468777 L145.095322,48.3253554 L145.039964,48.4038331 L144.984605,48.4798583 L144.929246,48.5509787 L144.87148,48.6343612 L144.813715,48.7079341 L144.755949,48.7839593 L144.70059,48.8575321 L144.638011,48.931105 L144.577838,49.0095826 L144.517666,49.0831555 L144.457493,49.1567283 L144.397321,49.2327535 L144.337148,49.3038739 L144.276975,49.3749943 L144.214396,49.4485671 L144.154223,49.5172351 L144.094051,49.5859031 L144.024251,49.6643808 L143.961671,49.7330487 L143.903906,49.8017167 L143.834105,49.8752895 L143.771526,49.9415051 L143.70654,50.0126255 L143.636739,50.0812934 L143.578974,50.1450565 L143.509173,50.2137245 L143.436966,50.2872973 L143.37198,50.3535129 L143.306994,50.417276 L143.2396,50.4834915 L143.172207,50.5472546 L143.1,50.618375 L143.0302,50.6821382 L142.962807,50.7459013 L142.895413,50.807212 L142.823206,50.8734275 L142.750999,50.939643 L142.681199,51.0009537 L142.608992,51.0622644 L142.541599,51.1235751 L142.466985,51.1873382 L142.394777,51.2486489 L142.324977,51.3075072 L142.250363,51.3663654 L142.175749,51.4276761 L142.101135,51.4889868 L142.026521,51.547845 L141.954314,51.6042509 L141.8797,51.6631091 L141.805086,51.719515 L141.725658,51.7783732 L141.651045,51.8372315 L141.576431,51.8911849 L141.497003,51.9475907 L141.422389,52.0039965 L141.347775,52.0554975 L141.26594,52.1119034 L141.191326,52.1658568 L141.109491,52.2198102 L141.034877,52.2713111 L140.957856,52.3228121 L140.876022,52.3767655 L140.794187,52.4307189 L140.717166,52.4797675 L140.635332,52.5312684 L140.560718,52.5778646 L140.478883,52.6269131 L140.394641,52.6784141 L140.312807,52.7274626 L140.235786,52.7740588 L140.151544,52.8206549 L140.069709,52.867251 L139.990282,52.9138471 L139.901226,52.9628957 L139.824205,53.0070394 L139.742371,53.0511831 L139.658129,53.0953268 L139.57148,53.1419229 L139.489646,53.1836142 L139.405404,53.2253054 L139.321163,53.2694491 L139.236921,53.308688 L139.152679,53.3503792 L139.063624,53.3945229 L138.981789,53.4337618 L138.895141,53.4730006 L138.808492,53.5122394 L138.721844,53.5514783 L138.635195,53.5907171 L138.548547,53.6275035 L138.464305,53.6618375 L138.37525,53.7010763 L138.286194,53.7378628 L138.199546,53.7721967 L138.112897,53.8089832 L138.023842,53.8433171 L137.934787,53.8776511 L137.843324,53.9119851 L137.756676,53.9438667 L137.672434,53.9732958 L137.580972,54.0076298 L137.487103,54.0395113 L137.39564,54.0689405 L137.311399,54.0983696 L137.219936,54.1277987 L137.126067,54.1596803 L137.039419,54.186657 L136.947956,54.2136337 L136.856494,54.2406104 L136.762625,54.2700395 L136.668756,54.2945638 L136.5797,54.3215405 L136.488238,54.3460648 L136.389555,54.370589 L136.3005,54.3926609 L136.213851,54.4171852 L136.117575,54.439257 L136.023706,54.4637813 L135.929837,54.4834007 L135.83356,54.5054725 L135.742098,54.5275444 L135.648229,54.5447114 L135.55436,54.5667832 L135.45327,54.5839502 L135.361807,54.6035696 L135.267938,54.6207366 L135.174069,54.6379036 L135.077793,54.6550706 L134.97911,54.6697852 L134.885241,54.6844998 L134.786558,54.6992143 L134.687875,54.7139289 L134.591599,54.7286434 L134.497729,54.7409056 L134.401453,54.7531677 L134.297956,54.7654299 L134.20168,54.7752396 L134.105404,54.7850493 L134.004314,54.794859 L133.908038,54.8046687 L133.809355,54.8144784 L133.710672,54.8218357 L133.611989,54.829193 L133.508492,54.8365503 L133.412216,54.8414551 L133.311126,54.8488124 L133.210036,54.8512648 L133.108946,54.8561697 L133.007856,54.8610745 L132.906767,54.863527 L132.805677,54.8659794 L132.706994,54.8684318 L132.598683,54.8684318 L132.5,54.8684318 L132.39891,54.8684318 L132.293006,54.8684318 L132.18951,54.8659794 L132.093233,54.863527 L131.98733,54.8610745 L131.88624,54.8561697 L131.787557,54.8512648 L131.686467,54.8488124 L131.587784,54.8414551 L131.486694,54.8365503 L131.388011,54.829193 L131.286921,54.8218357 L131.190645,54.8144784 L131.091962,54.8046687 L130.990872,54.794859 L130.894596,54.7850493 L130.793506,54.7752396 L130.69723,54.7654299 L130.598547,54.7531677 L130.502271,54.7409056 L130.403588,54.7286434 L130.309718,54.7139289 L130.211035,54.6992143 L130.114759,54.6844998 L130.02089,54.6697852 L129.922207,54.6550706 L129.825931,54.6379036 L129.729655,54.6207366 L129.638193,54.6035696 L129.544323,54.5839502 L129.44564,54.5667832 L129.349364,54.5447114 L129.255495,54.5275444 L129.164033,54.5054725 L129.070163,54.4834007 L128.976294,54.4637813 L128.880018,54.439257 L128.786149,54.4171852 L128.694687,54.3926609 L128.605631,54.370589 L128.511762,54.3460648 L128.417893,54.3215405 L128.326431,54.2945638 L128.237375,54.2700395 L128.138692,54.2406104 L128.049637,54.2136337 L127.962988,54.186657 L127.871526,54.1596803 L127.780064,54.1277987 L127.691008,54.0983696 L127.599546,54.0689405 L127.51049,54.0395113 L127.419028,54.0076298 L127.327566,53.9732958 L127.243324,53.9438667 L127.154269,53.9095327 L127.062807,53.8751987 L126.973751,53.8433171 L126.887103,53.8089832 L126.800454,53.7746492 L126.708992,53.7378628 L126.622343,53.7010763 L126.533288,53.6618375 L126.446639,53.6275035 L126.362398,53.5882647 L126.275749,53.5514783 L126.193915,53.5146919 L126.104859,53.4730006 L126.018211,53.4337618 L125.933969,53.3945229 L125.844914,53.3503792 L125.763079,53.3111404 L125.681244,53.2694491 L125.592189,53.2253054 L125.507947,53.1836142 L125.426113,53.1394705 L125.341871,53.0953268 L125.260036,53.0511831 L125.178202,53.0070394 L125.091553,52.9604433 L125.009718,52.9138471 L124.930291,52.8697034 L124.841235,52.8206549 L124.759401,52.7716063 L124.6896,52.7299151 L124.605359,52.6784141 L124.51871,52.6269131 L124.441689,52.580317 L124.359855,52.5312684 L124.280427,52.477315 L124.200999,52.4282665 L124.123978,52.3767655 L124.04455,52.3252645 L123.962716,52.2713111 L123.885695,52.2198102 L123.808674,52.1658568 L123.726839,52.1094509 L123.654632,52.05795 L123.577611,52.0039965 L123.495777,51.9451383 L123.421163,51.8911849 L123.348955,51.8372315 L123.269528,51.7783732 L123.199728,51.7219674 L123.1203,51.6631091 L123.043279,51.6042509 L122.971072,51.547845 L122.896458,51.4865344 L122.821844,51.4276761 L122.752044,51.3688178 L122.67743,51.3099596 L122.605223,51.2486489 L122.533015,51.1873382 L122.458401,51.1235751 L122.383787,51.059812 L122.313987,50.9985013 L122.246594,50.939643 L122.176794,50.8758799 L122.10218,50.807212 L122.034787,50.7459013 L121.964986,50.6821382 L121.892779,50.6134702 L121.827793,50.5521595 L121.762807,50.4883964 L121.690599,50.417276 L121.620799,50.348608 L121.555813,50.2823925 L121.493233,50.2186294 L121.42584,50.1499614 L121.35604,50.078841 L121.29346,50.0126255 L121.228474,49.9415051 L121.163488,49.8728371 L121.100908,49.8041691 L121.035922,49.7330487 L120.968529,49.6594759 L120.908356,49.5908079 L120.845777,49.5196875 L120.785604,49.4485671 L120.723025,49.3749943 L120.655631,49.2989691 L120.597866,49.2278487 L120.542507,49.1616331 L120.479927,49.0831555 L120.414941,49.0071302 L120.357175,48.931105 L120.29941,48.8575321 L120.244051,48.7839593 L120.186285,48.7079341 L120.12852,48.6343612 L120.070754,48.5558836 L120.012988,48.4798583 L119.957629,48.4038331 L119.899864,48.3253554 L119.846912,48.2468777 L119.791553,48.1684 L119.736194,48.0899223 L119.685649,48.0163495 L119.630291,47.9354194 L119.577339,47.8544893 L119.526794,47.7784641 L119.473842,47.6950815 L119.423297,47.6190563 L119.372752,47.5356737 L119.3198,47.4522912 L119.269255,47.3713611 L119.221117,47.2928834 L119.172979,47.2144057 L119.122434,47.1285708 L119.076703,47.0476407 L119.026158,46.9618057 L118.980427,46.8784232 L118.932289,46.7974931 L118.888965,46.7141105 L118.840827,46.630728 L118.797502,46.5473455 L118.751771,46.4615105 L118.708447,46.378128 L118.665123,46.292293 L118.619391,46.2064581 L118.580881,46.1206231 L118.537557,46.0323357 L118.494233,45.9514056 L118.455722,45.8631182 L118.409991,45.7772833 L118.373887,45.6939007 L118.33297,45.6031609 L118.292053,45.5124211 L118.253542,45.4290386 L118.219846,45.3432036 L118.181335,45.2524638 L118.142825,45.161724 L118.104314,45.075889 L118.070618,44.9876016 L118.036921,44.8993142 L117.998411,44.806122 L117.964714,44.7178346 L117.933424,44.6295472 L117.899728,44.5388074 L117.868438,44.45052 L117.834741,44.3548753 L117.798638,44.2616831 L117.772162,44.1783006 L117.738465,44.0875607 L117.711989,43.9943685 L117.680699,43.9011763 L117.651817,43.807984 L117.620527,43.7147918 L117.591644,43.6215995 L117.567575,43.5333121 L117.538692,43.4376675 L117.512216,43.3395704 L117.488147,43.251283 L117.464078,43.1629956 L117.440009,43.0648985 L117.41594,42.9668014 L117.389464,42.8760616 L117.367802,42.7828693 L117.34614,42.6823198 L117.324478,42.5891276 L117.302816,42.4983878 L117.281153,42.3953858 L117.261898,42.3021936 L117.240236,42.2065489 L117.220981,42.1109042 L117.201726,42.0128071 L117.187284,41.9171625 L117.168029,41.8215178 L117.151181,41.7234207 L117.136739,41.6253236 L117.122298,41.5272265 L117.10545,41.426677 L117.088601,41.3359371 L117.078974,41.2353876 L117.062125,41.1348381 L117.050091,41.0318361 L117.035649,40.9312866 L117.028429,40.8405468 L117.013987,40.7399973 L117.006767,40.6345429 L116.997139,40.5315409 L116.987511,40.4334438 L116.977884,40.3353467 L116.970663,40.2298924 L116.961035,40.1317953 L116.956222,40.0312457 L116.949001,39.9331486 L116.946594,39.8252418 L116.939373,39.7222399 L116.936966,39.6216904 L116.932153,39.5186884 L116.932153,39.4156865 L116.927339,39.3053272 L116.927339,39.2096825 L116.924932,39.1042282 L116.924932,38.9987738 L116.924932,38.8933194 L116.927339,38.7903175 L116.927339,38.6922204 L116.932153,38.5843135 L116.932153,38.4813116 L116.936966,38.3783096 L116.939373,38.2777601 L116.946594,38.1747582 L116.949001,38.0668514 L116.956222,37.9687543 L116.961035,37.8682047 L116.970663,37.7676552 L116.977884,37.6646533 L116.987511,37.5641037 L116.997139,37.4660066 L117.006767,37.3630047 L117.013987,37.2600027 L117.028429,37.1570008 L117.035649,37.0687134 L117.050091,36.9681639 L117.062125,36.8651619 L117.078974,36.7646124 L117.088601,36.6640629 L117.10545,36.573323 L117.122298,36.4727735 L117.136739,36.3746764 L117.151181,36.2765793 L117.168029,36.1784822 L117.187284,36.0828375 L117.201726,35.9847405 L117.220981,35.8890958 L117.240236,35.7934511 L117.261898,35.6978064 L117.281153,35.6046142 L117.302816,35.5016122 L117.324478,35.4108724 L117.34614,35.3152278 L117.367802,35.2171307 L117.389464,35.1239384 L117.41594,35.0331986 L117.440009,34.9351015 L117.464078,34.8394568 L117.488147,34.748717 L117.512216,34.6579772 L117.538692,34.5623325 L117.567575,34.4666879 L117.591644,34.3784005 L117.620527,34.2852082 L117.651817,34.192016 L117.680699,34.0988237 L117.711989,34.0056315 L117.738465,33.9124393 L117.772162,33.8216994 L117.798638,33.7358645 L117.834741,33.6451247 L117.868438,33.54948 L117.899728,33.4611926 L117.933424,33.3704528 L117.964714,33.279713 L117.998411,33.193878 L118.036921,33.1006858 L118.070618,33.0123984 L118.104314,32.924111 L118.142825,32.838276 L118.181335,32.7475362 L118.219846,32.6567964 L118.253542,32.5709614 L118.292053,32.4875789 L118.33297,32.3968391 L118.373887,32.3060993 L118.409991,32.2227167 L118.455722,32.1368818 L118.494233,32.0485944 L118.537557,31.9676643 L118.580881,31.8793769 L118.619391,31.7910895 L118.665123,31.707707 L118.708447,31.621872 L118.751771,31.5360371 L118.797502,31.4526545 L118.840827,31.369272 L118.888965,31.283437 L118.932289,31.2025069 L118.980427,31.1215768 L119.026158,31.0381943 L119.076703,30.9523593 L119.122434,30.8714292 L119.172979,30.7855943 L119.221117,30.7071166 L119.269255,30.6286389 L119.3198,30.5477088 L119.372752,30.4618738 L119.423297,30.3809437 L119.473842,30.3049185 L119.526794,30.2215359 L119.577339,30.1455107 L119.630291,30.0645806 L119.685649,29.9836505 L119.736194,29.9100777 L119.791553,29.8316 L119.846912,29.7506699 L119.899864,29.6746446 L119.957629,29.5937145 L120.012988,29.5201417 L120.070754,29.441664 L120.12852,29.3656388 L120.186285,29.2896135 L120.244051,29.2160407 L120.29941,29.1400154 L120.357175,29.068895 L120.414941,28.9928698 L120.479927,28.9168445 L120.542507,28.8383669 L120.597866,28.7721513 L120.655631,28.7010309 L120.723025,28.6250057 L120.785604,28.5514329 L120.845777,28.47786 L120.908356,28.4091921 L120.968529,28.3380717 L121.035922,28.2644988 L121.100908,28.1958309 L121.163488,28.1271629 L121.228474,28.0584949 L121.29346,27.9873745 L121.35604,27.921159 L121.42584,27.8500386 L121.493233,27.7813706 L121.555813,27.7151551 L121.620799,27.651392 L121.690599,27.5802716 L121.762807,27.5116036 L121.827793,27.4478405 L121.892779,27.3865298 L121.964986,27.3178618 L122.034787,27.2540987 L122.10218,27.192788 L122.176794,27.1241201 L122.246594,27.060357 L122.313987,27.0014987 L122.383787,26.940188 L122.458401,26.8764249 L122.533015,26.8126618 L122.605223,26.7513511 L122.67743,26.6900404 L122.752044,26.6287297 L122.821844,26.5723239 L122.896458,26.5134656 L122.971072,26.452155 L123.043279,26.3957491 L123.1203,26.3368909 L123.199728,26.2755802 L123.269528,26.2216268 L123.348955,26.1627685 L123.421163,26.1088151 L123.495777,26.0548617 L123.577611,25.9960035 L123.654632,25.94205 L123.726839,25.8905491 L123.808674,25.8341432 L123.885695,25.7801898 L123.962716,25.7286889 L124.04455,25.6747355 L124.123978,25.6232345 L124.200999,25.5717335 L124.280427,25.522685 L124.357448,25.471184 L124.441689,25.419683 L124.51871,25.3706345 L124.605359,25.3215859 L124.684787,25.2725374 L124.759401,25.2283937 L124.846049,25.1793451 L124.930291,25.1302966 L125.009718,25.0837004 L125.091553,25.0395567 L125.178202,24.9905082 L125.260036,24.9463645 L125.341871,24.9046732 L125.426113,24.8580771 L125.507947,24.8163858 L125.592189,24.7746946 L125.681244,24.7305509 L125.763079,24.6888596 L125.844914,24.6496208 L125.933969,24.6054771 L126.018211,24.5662382 L126.104859,24.5269994 L126.193915,24.4853081 L126.275749,24.4485217 L126.362398,24.4092829 L126.446639,24.3724965 L126.533288,24.3357101 L126.622343,24.2989237 L126.708992,24.2621372 L126.800454,24.2253508 L126.887103,24.1910168 L126.973751,24.1566829 L127.062807,24.1248013 L127.154269,24.0904673 L127.243324,24.0561333 L127.327566,24.0242518 L127.419028,23.9923702 L127.51049,23.9604887 L127.599546,23.9310595 L127.691008,23.9016304 L127.780064,23.8722013 L127.871526,23.8403197 L127.962988,23.813343 L128.049637,23.7863663 L128.138692,23.7593896 L128.237375,23.7299605 L128.326431,23.7054362 L128.417893,23.6784595 L128.511762,23.6539352 L128.605631,23.629411 L128.694687,23.6048867 L128.786149,23.5828148 L128.880018,23.560743 L128.976294,23.5362187 L129.070163,23.5141469 L129.164033,23.4945275 L129.255495,23.4724556 L129.349364,23.4552886 L129.44564,23.4332168 L129.544323,23.4135973 L129.638193,23.3964304 L129.729655,23.3792634 L129.825931,23.3620964 L129.922207,23.3449294 L130.02089,23.3277624 L130.114759,23.3130478 L130.211035,23.3007857 L130.309718,23.2860711 L130.403588,23.2713566 L130.502271,23.2590944 L130.598547,23.2468323 L130.69723,23.2345701 L130.793506,23.2247604 L130.894596,23.2124983 L130.990872,23.205141 L131.091962,23.1953313 L131.190645,23.1855216 L131.286921,23.1781643 L131.388011,23.170807 L131.486694,23.1634497 L131.587784,23.1560925 L131.686467,23.15364 L131.787557,23.1462828 L131.88624,23.1438303 L131.98733,23.1389255 L132.093233,23.136473 L132.18951,23.1340206 L132.293006,23.1315682 L132.396503,23.1315682 L132.5,23.1315682 L132.603497,23.1315682 L132.706994,23.1315682 L132.805677,23.1340206 L132.906767,23.136473 L133.007856,23.1389255 L133.108946,23.1438303 L133.210036,23.1462828 L133.311126,23.15364 L133.412216,23.1560925 L133.508492,23.1634497 L133.611989,23.170807 L133.710672,23.1781643 L133.809355,23.1855216 L133.908038,23.1953313 L134.004314,23.205141 L134.105404,23.2124983 L134.20168,23.2247604 L134.297956,23.2345701 L134.401453,23.2468323 L134.497729,23.2590944 L134.591599,23.2713566 L134.687875,23.2860711 L134.786558,23.3007857 L134.885241,23.3130478 L134.97911,23.3277624 L135.077793,23.3449294 L135.174069,23.3620964 L135.267938,23.3792634 L135.361807,23.3964304 L135.45327,23.4135973 L135.55436,23.4332168 L135.648229,23.4552886 L135.742098,23.4724556 L135.83356,23.492075 L135.929837,23.5141469 L136.023706,23.5362187 L136.117575,23.560743 L136.213851,23.5828148 L136.3005,23.6048867 L136.389555,23.6269585 L136.488238,23.6539352 L136.5797,23.6784595 L136.668756,23.7029838 L136.762625,23.7299605 L136.856494,23.7593896 L136.947956,23.7863663 L137.039419,23.813343 L137.126067,23.8403197 L137.219936,23.8722013 L137.311399,23.9016304 L137.39564,23.9286071 L137.487103,23.9604887 L137.580972,23.9923702 L137.672434,24.0242518 L137.756676,24.0561333 L137.843324,24.0880149 L137.934787,24.1223489 L138.023842,24.1566829 L138.112897,24.1910168 L138.199546,24.2278033 L138.286194,24.2621372 L138.37525,24.2989237 L138.464305,24.3357101 L138.548547,24.3724965 L138.635195,24.4092829 L138.721844,24.4485217 L138.808492,24.4853081 L138.895141,24.5269994 L138.981789,24.5662382 L139.063624,24.6054771 L139.152679,24.6471684 L139.236921,24.6888596 L139.321163,24.7305509 L139.405404,24.7746946 L139.489646,24.8163858 L139.57148,24.8580771 L139.658129,24.9046732 L139.742371,24.9488169 L139.824205,24.9929606 L139.901226,25.0371043 L139.990282,25.0837004 L140.069709,25.132749 L140.149137,25.1768927 L140.235786,25.2259412 L140.31762,25.2749898 L140.394641,25.3215859 L140.476476,25.3706345 L140.560718,25.4221354 L140.640145,25.471184 L140.717166,25.5202325 L140.794187,25.5692811 L140.876022,25.6232345 L140.957856,25.6771879 L141.034877,25.7286889 L141.109491,25.7801898 L141.191326,25.8341432 L141.26594,25.8880966 L141.347775,25.94205 L141.422389,25.9960035 L141.497003,26.0524093 L141.576431,26.1088151 L141.651045,26.1627685 L141.725658,26.2216268 L141.805086,26.2780326 L141.8797,26.3368909 L141.954314,26.3957491 L142.026521,26.452155 L142.101135,26.5110132 L142.175749,26.5723239 L142.250363,26.6311822 L142.324977,26.6924928 L142.394777,26.7513511 L142.466985,26.8126618 L142.541599,26.8764249 L142.608992,26.9377356 L142.681199,26.9965939 L142.750999,27.060357 L142.823206,27.1265725 L142.895413,27.192788 L142.962807,27.2540987 L143.0302,27.3178618 L143.1,27.381625 L143.172207,27.4502929 L143.2396,27.5165085 L143.306994,27.5802716 L143.37198,27.6464871 L143.436966,27.7127027 L143.509173,27.7838231 L143.578974,27.8549435 L143.636739,27.9162541 L143.70654,27.9873745 L143.771526,28.0584949 L143.834105,28.1247105 L143.903906,28.1982833 L143.961671,28.2644988 L144.024251,28.3356192 L144.094051,28.4140969 L144.154223,28.4827649 L144.214396,28.5514329 L144.276975,28.6250057 L144.337148,28.6961261 L144.397321,28.7672465 L144.457493,28.8432717 L144.517666,28.9168445 L144.577838,28.9879649 L144.638011,29.068895 L144.70059,29.1400154 L144.755949,29.2160407 L144.813715,29.2896135 L144.87148,29.3656388 L144.929246,29.4465689 L144.984605,29.5201417 L145.039964,29.5937145 L145.095322,29.6746446 L145.150681,29.7506699 L145.208447,29.8316 L145.256585,29.9051728 L145.314351,29.9836505 L145.367302,30.0645806 L145.420254,30.1455107 L145.470799,30.2215359 L145.526158,30.3049185 L145.576703,30.3858486 L145.624841,30.4618738 L145.677793,30.5428039 L145.728338,30.6286389 L145.778883,30.7120214 L145.824614,30.7904991 L145.877566,30.8714292 L145.923297,30.9523593 L145.969028,31.030837 L146.019573,31.1215768 L146.062897,31.2025069 L146.111035,31.283437 L146.156767,31.369272 L146.202498,31.4526545 L146.243415,31.5360371 L146.289146,31.621872 L146.334877,31.707707 L146.375795,31.7910895 L146.419119,31.8793769 L146.460036,31.960307 L146.505767,32.0485944 L146.544278,32.1368818 L146.585195,32.2227167 L146.626113,32.3110041 L146.662216,32.3968391 L146.70554,32.4802216 L146.741644,32.5709614 L146.782561,32.6617013 L146.818665,32.7475362 L146.852361,32.8309188 L146.890872,32.924111 L146.926975,33.0173032 L146.965486,33.1055906 L146.999183,33.1865207 L147.030472,33.279713 L147.066576,33.3704528 L147.100272,33.4611926 L147.133969,33.5568373 L147.162852,33.6377674 L147.194142,33.7309596 L147.227838,33.8290567 L147.259128,33.9197965 L147.288011,34.0056315 L147.319301,34.0988237 L147.345777,34.192016 L147.374659,34.2778509 L147.403542,34.3710432 L147.430018,34.4740451 L147.458901,34.5623325 L147.485377,34.6506199 L147.509446,34.748717 L147.533515,34.8443617 L147.559991,34.9351015 L147.581653,35.0258413 L147.608129,35.1239384 L147.629791,35.2244879 L147.65386,35.3152278 L147.675522,35.4108724 L147.697184,35.5016122 L147.71644,35.5972569 L147.738102,35.6978064 L147.757357,35.7934511 L147.774205,35.8890958 L147.79346,35.9847405 L147.812716,36.0828375 L147.827157,36.1784822 L147.846412,36.2765793 L147.863261,36.3746764 L147.877702,36.4727735 L147.89455,36.573323 L147.911399,36.6714201 L147.923433,36.7646124 L147.933061,36.8651619 L147.947502,36.9681639 L147.959537,37.0613561 L147.971571,37.1643581 L147.981199,37.26736 L147.993233,37.3630047 L148.005268,37.4611018 L148.012489,37.5641037 L148.019709,37.6646533 L148.02693,37.7676552 L148.034151,37.8682047 L148.038965,37.9687543 L148.046185,38.0742086 L148.053406,38.1747582 L148.055813,38.2777601 L148.063034,38.3783096 L148.065441,38.4813116 L148.067847,38.5843135 L148.072661,38.6873155 L148.072661,38.7903175 Z M159,38.9448204 L158.997593,38.8589854 L158.995186,38.6088378 L158.992779,38.466597 L158.987965,38.3268087 L158.983152,38.0766611 L158.978338,37.9393251 L158.971117,37.7970843 L158.96149,37.605795 L158.954269,37.4120532 L158.944641,37.2722649 L158.932607,37.0834279 L158.918165,36.8896862 L158.906131,36.7523502 L158.891689,36.556156 L158.877248,36.4261774 L158.855586,36.1784822 L158.845958,36.0975521 L158.821889,35.8547618 L158.805041,35.7174259 L158.785786,35.5825423 L158.756903,35.3446569 L158.744868,35.2612744 L158.713579,35.018484 L158.691916,34.8885054 L158.663034,34.6996685 L158.641371,34.564785 L158.610082,34.3833053 L158.578792,34.1944684 L158.549909,34.0129888 L158.523433,33.8830101 L158.49455,33.7481266 L158.451226,33.5126936 L158.42475,33.3851674 L158.395867,33.2502838 L158.35495,33.0712566 L158.314033,32.8873246 L158.273115,32.7107498 L158.244233,32.5807712 L158.198501,32.3992915 L158.155177,32.2202643 L158.123887,32.0951905 L158.075749,31.9137109 L158.042053,31.7886371 L157.991508,31.6096099 L157.94337,31.4330351 L157.892825,31.2564603 L157.854314,31.133839 L157.801362,30.9548118 L157.760445,30.8346428 L157.705086,30.658068 L157.649728,30.4839457 L157.594369,30.3098233 L157.551045,30.187202 L157.493279,30.0130796 L157.449955,29.8978155 L157.387375,29.7187883 L157.327203,29.5495708 L157.264623,29.3828058 L157.221299,29.2626368 L157.153906,29.0909669 L157.088919,28.9217494 L157.043188,28.8040329 L156.973388,28.6397202 L156.905995,28.4680503 L156.85545,28.3527862 L156.785649,28.1860212 L156.715849,28.0217085 L156.66049,27.9064444 L156.588283,27.7396794 L156.513669,27.5753667 L156.458311,27.4601026 L156.383697,27.3006949 L156.306676,27.1412871 L156.229655,26.9769744 L156.171889,26.8641628 L156.092461,26.704755 L156.013034,26.5428948 L155.955268,26.434988 L155.871026,26.2731278 L155.789192,26.1186248 L155.729019,26.0058132 L155.642371,25.8488578 L155.558129,25.6968073 L155.47148,25.5423044 L155.408901,25.4319451 L155.319846,25.2774422 L155.233197,25.1253917 L155.163397,25.0150325 L155.074342,24.8654344 L154.982879,24.7158363 L154.893824,24.5662382 L154.826431,24.4583314 L154.730154,24.3062809 L154.638692,24.1640401 L154.566485,24.0561333 L154.467802,23.9089877 L154.373933,23.7691993 L154.27525,23.6196013 L154.200636,23.5116944 L154.10436,23.3719061 L154.00327,23.2272129 L153.909401,23.0923294 L153.827566,22.9819701 L153.728883,22.8446342 L153.625386,22.7023934 L153.545958,22.6018439 L153.440054,22.4620555 L153.336558,22.327172 L153.230654,22.1873836 L153.151226,22.0892865 L153.040509,21.9519506 L152.937012,21.8219719 L152.828701,21.684636 L152.74446,21.5865389 L152.633742,21.4541078 L152.523025,21.3216767 L152.412307,21.1916981 L152.328065,21.0960534 L152.214941,20.9660748 L152.104223,20.841001 L152.010354,20.7404514 L151.870754,20.5834961 L151.784105,20.4903038 L151.66376,20.3627776 L151.579519,20.2720378 L151.430291,20.11263 L151.343642,20.0243426 L151.225704,19.9041737 L151.129428,19.8060766 L150.982607,19.6589309 L150.891144,19.5706435 L150.770799,19.452927 L150.672116,19.3572823 L150.525295,19.2150416 L150.429019,19.1267542 L150.30386,19.0090376 L150.183515,18.8986784 L150.080018,18.8079386 L149.928383,18.6681502 L149.8297,18.5823153 L149.704541,18.4695036 L149.605858,18.3861211 L149.44941,18.2512376 L149.345913,18.1654026 L149.218347,18.0574958 L149.11485,17.9741133 L148.955995,17.8441346 L148.852498,17.7607521 L148.722525,17.6552977 L148.590145,17.5522957 L148.455359,17.4492938 L148.349455,17.3683637 L148.195413,17.2481947 L148.087103,17.1697171 L147.971571,17.0838821 L147.815123,16.968618 L147.704405,16.8901403 L147.54555,16.7773287 L147.430018,16.6963986 L147.316894,16.6179209 L147.158038,16.5100141 L147.0401,16.4315364 L146.883651,16.326082 L146.789782,16.2647713 L146.623706,16.1568645 L146.488919,16.0685771 L146.366167,15.9925519 L146.228974,15.9091694 L146.084559,15.8184295 L145.942552,15.7325946 L145.805359,15.649212 L145.682607,15.5780916 L145.51653,15.4799946 L145.396185,15.4113266 L145.27584,15.345111 L145.10495,15.2470139 L144.96535,15.1709887 L144.83297,15.0998683 L144.698183,15.0287479 L144.541735,14.9478178 L144.402134,14.874245 L144.269755,14.805577 L144.108492,14.7246469 L143.973706,14.6584314 L143.826885,14.587311 L143.68247,14.518643 L143.526022,14.4450702 L143.400863,14.3862119 L143.229973,14.3077342 L143.097593,14.248876 L142.948365,14.1826604 L142.79673,14.1164449 L142.647502,14.0526818 L142.507902,13.9938235 L142.341826,13.9251555 L142.209446,13.8712021 L142.05059,13.807439 L141.901362,13.7510332 L141.742507,13.6897225 L141.605313,13.6382215 L141.43683,13.5769108 L141.294823,13.5254099 L141.145595,13.4714565 L140.979519,13.4125982 L140.825477,13.3610972 L140.676249,13.3095963 L140.527021,13.2630001 L140.358538,13.2090467 L140.21653,13.164903 L140.052861,13.1134021 L139.896412,13.0668059 L139.744777,13.0226622 L139.593143,12.980971 L139.417439,12.92947 L139.270618,12.8902312 L139.102134,12.843635 L138.955313,12.8068486 L138.789237,12.7651574 L138.644823,12.7308234 L138.464305,12.6866797 L138.315077,12.6523457 L138.153815,12.6155593 L137.990145,12.5787729 L137.828883,12.5468913 L137.665213,12.5125573 L137.508765,12.4806758 L137.340282,12.4487942 L137.188647,12.4218175 L137.017757,12.389936 L136.856494,12.3629593 L136.683197,12.3335301 L136.529155,12.3114583 L136.363079,12.2844816 L136.194596,12.2599573 L136.03574,12.2378855 L135.86485,12.2158136 L135.701181,12.1961942 L135.537511,12.1741223 L135.359401,12.1545029 L135.205359,12.1397884 L135.032062,12.1201689 L134.861172,12.1054544 L134.697502,12.0907398 L134.529019,12.0784777 L134.360536,12.0662155 L134.19446,12.0539534 L134.025976,12.0441437 L133.852679,12.034334 L133.681789,12.0245243 L133.51812,12.0196194 L133.342416,12.0147146 L133.171526,12.0073573 L133.00545,12.0049049 L132.827339,12.0024524 L132.658856,12 L132.5,12 L132.317075,12 L132.146185,12.0024524 L131.977702,12.0049049 L131.801998,12.0098097 L131.635922,12.0147146 L131.462625,12.0196194 L131.294142,12.0269767 L131.125658,12.034334 L130.954768,12.0441437 L130.786285,12.0564058 L130.617802,12.0662155 L130.444505,12.0784777 L130.280836,12.0931922 L130.112352,12.1079068 L129.946276,12.1226214 L129.777793,12.1397884 L129.611717,12.1594078 L129.448047,12.1765748 L129.281971,12.1961942 L129.10386,12.2207185 L128.954632,12.2403379 L128.778928,12.2648622 L128.620073,12.286934 L128.451589,12.3139107 L128.285513,12.338435 L128.124251,12.3654117 L127.967802,12.3923884 L127.789691,12.4242699 L127.635649,12.4536991 L127.476794,12.4831282 L127.308311,12.5174622 L127.154269,12.5493437 L126.990599,12.5836777 L126.817302,12.6229166 L126.677702,12.6547981 L126.492371,12.6964894 L126.355177,12.7308234 L126.186694,12.7725146 L126.032652,12.8093011 L125.866576,12.8534448 L125.70772,12.895136 L125.563306,12.9368273 L125.390009,12.9834234 L125.240781,13.0275671 L125.079519,13.0741632 L124.927884,13.1183069 L124.769028,13.1673555 L124.607766,13.2188564 L124.451317,13.267905 L124.311717,13.3145011 L124.152861,13.3684545 L123.984378,13.4248603 L123.844777,13.4739089 L123.70277,13.5254099 L123.534287,13.5867206 L123.373025,13.6455788 L123.240645,13.6970798 L123.08901,13.7559381 L122.930154,13.8147963 L122.780926,13.876107 L122.622071,13.9398701 L122.470436,14.0011808 L122.34287,14.0575866 L122.188828,14.1238022 L122.037193,14.1875653 L121.887965,14.2562333 L121.736331,14.3224488 L121.584696,14.3911168 L121.454723,14.4524274 L121.28624,14.5309051 L121.151453,14.5946682 L121.007039,14.6682411 L120.884287,14.7295518 L120.708583,14.8153867 L120.590645,14.8791498 L120.43901,14.9576275 L120.272934,15.04101 L120.16703,15.0998683 L120.003361,15.1881557 L119.854133,15.2715382 L119.736194,15.3377538 L119.586966,15.4211363 L119.449773,15.499614 L119.300545,15.5854489 L119.185014,15.6565693 L119.01653,15.7546664 L118.898592,15.8257868 L118.758992,15.9140742 L118.612171,16.0023616 L118.50386,16.073482 L118.335377,16.1813888 L118.222252,16.2549616 L118.085059,16.3457014 L117.938238,16.4413461 L117.834741,16.5149189 L117.668665,16.6277306 L117.557947,16.7037558 L117.423161,16.7994005 L117.281153,16.8974976 L117.177657,16.9759753 L117.01158,17.0936918 L116.905677,17.1746219 L116.768483,17.2751714 L116.633697,17.3781734 L116.532607,17.4566511 L116.373751,17.5792724 L116.267847,17.662655 L116.135468,17.7681094 L116.031971,17.8514919 L115.875522,17.9814705 L115.772025,18.0648531 L115.642053,18.1727599 L115.516894,18.2806667 L115.384514,18.3910259 L115.285831,18.4793133 L115.163079,18.5872201 L115.035513,18.7000318 L114.907947,18.8128435 L114.811671,18.9035833 L114.686512,19.0163949 L114.566167,19.131659 L114.438601,19.251828 L114.318256,19.3646396 L114.224387,19.4578319 L114.101635,19.5755484 L113.978883,19.6957173 L113.860945,19.8158863 L113.774296,19.9041737 L113.649137,20.0316999 L113.531199,20.1543213 L113.415668,20.2744902 L113.321798,20.3750397 L113.215895,20.4927563 L113.093143,20.6227349 L112.977611,20.7502611 L112.89337,20.8434534 L112.780245,20.973432 L112.667121,21.1009583 L112.551589,21.2333893 L112.472162,21.3265816 L112.330154,21.4933467 L112.279609,21.5571098 L112.140009,21.7263273 L112.058174,21.8268768 L111.920981,21.9936419 L111.872843,22.0598574 L111.738056,22.2290749 L111.658629,22.3345293 L111.523842,22.5037468 L111.475704,22.5724147 L111.345731,22.7440847 L111.266303,22.849539 L111.16762,22.9893274 L111.06653,23.1291158 L110.98951,23.2370226 L110.864351,23.4135973 L110.792144,23.5190517 L110.71753,23.6269585 L110.597184,23.8059857 L110.52257,23.916345 L110.426294,24.0610382 L110.358901,24.168945 L110.265032,24.3160906 L110.173569,24.4607839 L110.077293,24.6128344 L109.985831,24.7575276 L109.916031,24.8727917 L109.826975,25.0223898 L109.764396,25.1278441 L109.648865,25.3240383 L109.586285,25.4343976 L109.523706,25.5496617 L109.412988,25.740951 L109.350409,25.8562151 L109.268574,26.0058132 L109.205995,26.1259821 L109.126567,26.2755802 L109.042325,26.4374404 L108.96049,26.5943957 L108.905132,26.7072074 L108.825704,26.8690676 L108.746276,27.0284754 L108.666848,27.1878832 L108.61149,27.3031473 L108.534469,27.4674599 L108.483924,27.5802716 L108.40931,27.7470367 L108.337103,27.9064444 L108.262489,28.0707571 L108.211944,28.190926 L108.142144,28.3552387 L108.072343,28.5220037 L108.024205,28.6397202 L107.956812,28.8089377 L107.889419,28.9732504 L107.843688,29.0958717 L107.757039,29.3092329 L107.73297,29.3852582 L107.648728,29.6059767 L107.607811,29.7212407 L107.545232,29.8953631 L107.504314,30.0204369 L107.444142,30.1921068 L107.388783,30.3588719 L107.32861,30.5378991 L107.2901,30.6605205 L107.234741,30.8321904 L107.196231,30.9597166 L107.145686,31.133839 L107.092734,31.3104137 L107.039782,31.4869885 L107.006085,31.6145147 L106.95554,31.7886371 L106.921844,31.9186157 L106.876113,32.0951905 L106.830381,32.2717653 L106.799092,32.4041964 L106.741326,32.6298197 L106.724478,32.7132022 L106.669119,32.9437304 L106.642643,33.0688042 L106.601726,33.2551887 L106.57525,33.3827149 L106.536739,33.566647 L106.500636,33.750579 L106.476567,33.8830101 L106.44287,34.0669422 L106.406767,34.2508742 L106.387511,34.3808529 L106.356222,34.564785 L106.334559,34.7045733 L106.296049,34.9375539 L106.286421,35.0209365 L106.252725,35.2612744 L106.23347,35.3961579 L106.209401,35.5825423 L106.194959,35.7174259 L106.17089,35.9087152 L106.151635,36.0950997 L106.137193,36.2348881 L106.117938,36.423725 L106.108311,36.5610609 L106.093869,36.7523502 L106.077021,36.9411872 L106.060173,37.1349289 L106.052952,37.2747173 L106.045731,37.4120532 L106.03129,37.657296 L106.028883,37.7455834 L106.016848,37.9908261 L106.014441,38.1306145 L106.007221,38.3268087 L106.004814,38.4690495 L106.002407,38.6603388 L106,38.856533 L106,38.9987738 L106,39.194968 L106.002407,39.3396612 L106.004814,39.533403 L106.009628,39.7246923 L106.014441,39.8669331 L106.019255,40.0631273 L106.026476,40.2029157 L106.036104,40.445706 L106.043324,40.5364458 L106.055359,40.7792361 L106.064986,40.9165721 L106.077021,41.0563604 L106.093869,41.2501022 L106.108311,41.4389391 L106.122752,41.627776 L106.137193,41.7651119 L106.156449,41.9564013 L106.173297,42.0937372 L106.194959,42.2776693 L106.216621,42.4714111 L106.23347,42.6038421 L106.257539,42.7902266 L106.279201,42.9275626 L106.312897,43.165448 L106.327339,43.2488306 L106.363442,43.4818112 L106.387511,43.6191471 L106.416394,43.8030792 L106.44287,43.9355102 L106.476567,44.1194423 L106.510263,44.3009219 L106.539146,44.4358054 L106.57525,44.6172851 L106.611353,44.7987647 L106.642643,44.9262909 L106.681153,45.1126754 L106.712443,45.2377492 L106.765395,45.4707298 L106.787057,45.5492075 L106.842416,45.7772833 L106.876113,45.9072619 L106.924251,46.0838367 L106.969982,46.2604115 L107.006085,46.3903901 L107.054223,46.5645125 L107.092734,46.6920387 L107.145686,46.866161 L107.198638,47.0427358 L107.251589,47.2193106 L107.2901,47.341932 L107.345459,47.5160543 L107.388783,47.6386757 L107.446549,47.8152505 L107.504314,47.9820155 L107.56208,48.1561379 L107.607811,48.2763068 L107.670391,48.4504292 L107.713715,48.5656933 L107.79555,48.7864117 L107.826839,48.862437 L107.908674,49.0708933 L107.959219,49.1959671 L108.026612,49.3627322 L108.091599,49.5270448 L108.14455,49.6496662 L108.214351,49.8115264 L108.284151,49.9782915 L108.33951,50.096008 L108.411717,50.2603206 L108.483924,50.4197284 L108.558538,50.5840411 L108.61149,50.6968527 L108.690917,50.8611654 L108.746276,50.973977 L108.825704,51.1358372 L108.907539,51.2976974 L108.984559,51.4546528 L109.047139,51.5699169 L109.12416,51.719515 L109.210808,51.8838276 L109.292643,52.0358781 L109.355223,52.1511422 L109.437057,52.3031927 L109.50445,52.4184568 L109.610354,52.6072937 L109.677748,52.7225578 L109.742734,52.8304646 L109.855858,53.0266588 L109.920845,53.1321132 L110.012307,53.2817112 L110.082107,53.3969753 L110.175976,53.5416686 L110.267439,53.6888142 L110.361308,53.8335074 L110.457584,53.9831055 L110.527384,54.0910123 L110.62366,54.238158 L110.698274,54.3411599 L110.818619,54.5201871 L110.893233,54.6280939 L110.970254,54.7335483 L111.095413,54.9125755 L111.16762,55.013125 L111.273524,55.1553658 L111.377021,55.2976066 L111.451635,55.3957037 L111.581608,55.5722785 L111.639373,55.6409465 L111.769346,55.8077115 L111.848774,55.908261 L111.981153,56.079931 L112.036512,56.1436941 L112.173706,56.315364 L112.25554,56.4134611 L112.390327,56.5753213 L112.448093,56.6439893 L112.587693,56.8058495 L112.671935,56.9039466 L112.785059,57.0314728 L112.898183,57.158999 L113.013715,57.2889777 L113.100363,57.3846224 L113.218302,57.5096962 L113.333833,57.6372224 L113.446957,57.7573913 L113.53842,57.8505836 L113.658765,57.9756574 L113.776703,58.1007312 L113.894641,58.2184477 L113.98851,58.3116399 L114.108856,58.4293565 L114.229201,58.5495254 L114.351953,58.6672419 L114.448229,58.7579817 L114.573388,58.8756983 L114.693733,58.9860575 L114.818892,59.103774 L114.944051,59.2190381 L115.040327,59.3048731 L115.1703,59.4176847 L115.295459,59.5304964 L115.420618,59.6384032 L115.526521,59.7266906 L115.65168,59.8345974 L115.779246,59.9425042 L115.909219,60.0479586 L116.01753,60.1337935 L116.169164,60.2588673 L116.277475,60.3447023 L116.407448,60.4477043 L116.518165,60.5310868 L116.672207,60.6512557 L116.780518,60.7321858 L116.917711,60.8351878 L117.045277,60.92838 L117.160808,61.014215 L117.319664,61.1270267 L117.432788,61.2079568 L117.569982,61.3036014 L117.699955,61.3943413 L117.817893,61.4752714 L117.981562,61.5856306 L118.094687,61.6616558 L118.23188,61.7499432 L118.37148,61.840683 L118.487012,61.9142559 L118.653088,62.0221627 L118.766213,62.0908306 L118.910627,62.1815705 L119.052634,62.264953 L119.172979,62.3360734 L119.336649,62.4341705 L119.459401,62.5052909 L119.603815,62.5886734 L119.743415,62.6671511 L119.892643,62.7505336 L120.012988,62.8167492 L120.162216,62.8952268 L120.325886,62.9859667 L120.436603,63.0423725 L120.597866,63.125755 L120.7495,63.2042327 L120.872252,63.263091 L121.043143,63.3513784 L121.165895,63.4102366 L121.322343,63.4862619 L121.445095,63.5426677 L121.618392,63.6211454 L121.748365,63.6824561 L121.9,63.751124 L122.051635,63.8173396 L122.20327,63.8835551 L122.350091,63.9448658 L122.508946,64.0135338 L122.636512,64.0650347 L122.792961,64.1287979 L122.94941,64.1901085 L123.101045,64.2514192 L123.252679,64.3078251 L123.406721,64.3666833 L123.546322,64.4181843 L123.705177,64.4745901 L123.876067,64.5383532 L124.010854,64.5849494 L124.157675,64.6339979 L124.323751,64.6904037 L124.485014,64.7419047 L124.624614,64.7860484 L124.78347,64.835097 L124.944732,64.8865979 L125.103588,64.9331941 L125.255223,64.9773378 L125.421299,65.0263863 L125.563306,65.0631727 L125.73901,65.1122213 L125.883424,65.1514601 L126.047094,65.1931514 L126.208356,65.2323902 L126.362398,65.271629 L126.528474,65.3108679 L126.682516,65.3476543 L126.848592,65.3844407 L127.005041,65.4163223 L127.163896,65.4506563 L127.329973,65.4874427 L127.493642,65.5168718 L127.659718,65.5487533 L127.816167,65.5806349 L127.979837,65.610064 L128.14832,65.6370407 L128.302361,65.661565 L128.470845,65.6909941 L128.636921,65.7155184 L128.805404,65.7375903 L128.969074,65.7621145 L129.127929,65.7841864 L129.298819,65.8062582 L129.469709,65.8234252 L129.628565,65.8430446 L129.801862,65.8626641 L129.963124,65.8773786 L130.131608,65.8945456 L130.295277,65.9092602 L130.470981,65.9215223 L130.63465,65.9337845 L130.80554,65.9435942 L130.978837,65.9558563 L131.137693,65.965666 L131.313397,65.9730233 L131.484287,65.9803806 L131.65277,65.9877379 L131.826067,65.9926427 L131.992144,65.9950951 L132.167847,65.9975476 L132.336331,66 L132.509628,66 L132.680518,66 L132.849001,65.9975476 L133.017484,65.9950951 L133.195595,65.9901903 L133.361671,65.9852854 L133.532561,65.9803806 L133.705858,65.9730233 L133.876748,65.9632136 L134.045232,65.9534039 L134.211308,65.9435942 L134.382198,65.931332 L134.548274,65.9215223 L134.711944,65.9068078 L134.887648,65.8920932 L135.051317,65.8749262 L135.222207,65.8577592 L135.385876,65.8405922 L135.549546,65.8209728 L135.720436,65.8038058 L135.879292,65.781734 L136.062216,65.7572097 L136.213851,65.7351378 L136.37752,65.713066 L136.548411,65.6860893 L136.714487,65.6591126 L136.870936,65.6321359 L137.041826,65.6051592 L137.191054,65.5781825 L137.371571,65.5438485 L137.520799,65.5144194 L137.689282,65.4825378 L137.850545,65.4482038 L138.016621,65.4138698 L138.161035,65.3819883 L138.341553,65.340297 L138.48356,65.3084155 L138.644823,65.2691766 L138.825341,65.2250329 L138.969755,65.1882465 L139.131017,65.1465552 L139.275431,65.1073164 L139.448728,65.0607203 L139.597956,65.019029 L139.76644,64.9699805 L139.918074,64.9258368 L140.072116,64.8792407 L140.228565,64.8326445 L140.392234,64.7811436 L140.531835,64.7369999 L140.700318,64.680594 L140.847139,64.6315455 L140.998774,64.5800445 L141.157629,64.5236387 L141.309264,64.4696853 L141.465713,64.4132794 L141.602906,64.3617785 L141.781017,64.2955629 L141.913397,64.2440619 L142.065032,64.1827513 L142.219074,64.123893 L142.375522,64.0601299 L142.507902,64.0037241 L142.673978,63.9350561 L142.813579,63.8761978 L142.9604,63.8124347 L143.112035,63.7437667 L143.263669,63.6750988 L143.393642,63.6162405 L143.564532,63.5377628 L143.696912,63.4739997 L143.834105,63.4077842 L143.992961,63.3317589 L144.134968,63.2606385 L144.267348,63.194423 L144.431017,63.1110405 L144.56099,63.0423725 L144.702997,62.9687997 L144.854632,62.8878696 L144.996639,62.8093919 L145.119391,62.7407239 L145.258992,62.6622462 L145.434696,62.5666016 L145.552634,62.4979336 L145.668165,62.4292656 L145.839055,62.3287161 L145.956994,62.2575957 L146.096594,62.1742132 L146.236194,62.0859258 L146.383015,61.995186 L146.517802,61.909351 L146.638147,61.8333258 L146.775341,61.7425859 L146.943824,61.6346791 L147.025658,61.5782733 L147.191735,61.4679141 L147.304859,61.3894364 L147.470936,61.2741723 L147.576839,61.2005995 L147.68515,61.1221218 L147.851226,61.0044053 L147.954723,60.9259276 L148.123206,60.8057587 L148.224296,60.727281 L148.332607,60.6438985 L148.496276,60.5212771 L148.597366,60.440347 L148.727339,60.337345 L148.862125,60.2318906 L148.996912,60.1239838 L149.093188,60.0455062 L149.25445,59.9106226 L149.353134,59.8272401 L149.485513,59.7168809 L149.581789,59.6334983 L149.740645,59.4961624 L149.836921,59.4103274 L149.964487,59.2999682 L150.060763,59.2092284 L150.212398,59.0743449 L150.315895,58.9787002 L150.43624,58.8658886 L150.556585,58.7530769 L150.650454,58.6598846 L150.802089,58.5151914 L150.898365,58.4219992 L151.021117,58.3042827 L151.107766,58.2135428 L151.259401,58.0614923 L151.346049,57.9707525 L151.466394,57.8481312 L151.55545,57.7524865 L151.702271,57.5979836 L151.788919,57.5047913 L151.90445,57.3797175 L151.991099,57.2816204 L152.133106,57.1246651 L152.222162,57.0241155 L152.332879,56.8965893 L152.443597,56.7690631 L152.530245,56.6685136 L152.636149,56.5385349 L152.749273,56.4036514 L152.857584,56.2736727 L152.937012,56.1780281 L153.047729,56.0382397 L153.153633,55.9058086 L153.264351,55.7660203 L153.338965,55.6679232 L153.442461,55.5330396 L153.548365,55.3932513 L153.656676,55.2510105 L153.728883,55.1529134 L153.83238,55.0106726 L153.938283,54.8659794 L154.01049,54.7629774 L154.106767,54.6256415 L154.207856,54.4784958 L154.30654,54.3362551 L154.37634,54.2283482 L154.472616,54.083655 L154.568892,53.9389618 L154.665168,53.7942686 L154.737375,53.6814569 L154.826431,53.5392161 L154.922707,53.3896181 L154.987693,53.2792588 L155.076748,53.1296607 L155.168211,52.9776102 L155.257266,52.8280122 L155.324659,52.7176529 L155.411308,52.5656024 L155.500363,52.4086471 L155.558129,52.3007403 L155.644777,52.1437849 L155.731426,51.989282 L155.813261,51.8372315 L155.873433,51.719515 L155.955268,51.5625596 L156.03951,51.4056043 L156.094868,51.2903402 L156.171889,51.1333848 L156.253724,50.9715246 L156.309083,50.8562605 L156.383697,50.6944003 L156.460718,50.5325401 L156.537738,50.3731323 L156.588283,50.2554158 L156.662897,50.0911031 L156.737511,49.9267905 L156.785649,49.809074 L156.85545,49.6447613 L156.927657,49.4804487 L156.973388,49.3602798 L157.043188,49.1935147 L157.110581,49.0242972 L157.153906,48.9041283 L157.218892,48.7398156 L157.286285,48.5632408 L157.329609,48.4455243 L157.389782,48.2763068 L157.449955,48.1070893 L157.512534,47.9305146 L157.553451,47.8103456 L157.613624,47.6362233 L157.649728,47.5136019 L157.707493,47.3394795 L157.760445,47.1678096 L157.818211,46.9887824 L157.854314,46.8637086 L157.907266,46.6895863 L157.94337,46.5669649 L157.991508,46.3854853 L158.042053,46.2113629 L158.090191,46.0323357 L158.123887,45.9048095 L158.169619,45.7233299 L158.198501,45.6007085 L158.244233,45.4192288 L158.28515,45.2377492 L158.31644,45.1053181 L158.35495,44.9287434 L158.395867,44.7448113 L158.436785,44.5633317 L158.460854,44.4309006 L158.484923,44.3058268 L158.533061,44.0654889 L158.55713,43.9330578 L158.578792,43.8006267 L158.610082,43.6191471 L158.643778,43.4303102 L158.670254,43.2463781 L158.691916,43.113947 L158.720799,42.9226577 L158.737648,42.792679 L158.771344,42.5523412 L158.780972,42.4665062 L158.812262,42.2261683 L158.826703,42.0937372 L158.841144,41.9564013 L158.86762,41.7111585 L158.872434,41.6302284 L158.896503,41.3825333 L158.906131,41.2501022 L158.922979,41.0563604 L158.932607,40.9190245 L158.944641,40.7252827 L158.954269,40.5339934 L158.96149,40.394205 L158.971117,40.2029157 L158.980745,40.0091739 L158.985559,39.8644807 L158.987965,39.7271447 L158.995186,39.4794496 L158.997593,39.3396612 L158.995186,39.194968 L159,38.9448204 Z" id="Fill-6" fill="#5B6B78"></path>
            <path d="M79.0486144,91 L79.0486144,38.5536274 C79.0486144,34.2031815 78.0773819,30.4986744 76.2393244,27.8377922 C74.1123252,24.7575319 70.8489839,23.1306339 66.7965162,23.1306339 C62.7464766,23.1306339 59.1092109,24.8201976 56.5524413,27.8908171 C54.1583531,30.7710292 52.839905,34.6418414 52.839905,38.7946493 L52.839905,71.4916847 L39.8909475,71.4916847 L39.8909475,38.7946493 C39.8909475,34.5502531 38.7303246,30.648108 36.6178939,27.8112798 C34.2286619,24.5912268 30.7856426,22.889612 26.6651887,22.889612 C22.5738717,22.889612 19.0677224,24.5815859 16.5279493,27.7871776 C14.2212721,30.6963124 12.9513856,34.6056881 12.9513856,38.7946493 L12.9513856,71.4916847 L0,71.4916847 L0,11.1494336 L11.9874373,11.1494336 L13.3908683,21.2627139 L14.7335973,18.7054712 C16.0933228,16.1072548 18.2834521,14.1043625 21.2359989,12.7546397 C23.7150699,11.6218366 26.7210346,11 29.7051465,11 C33.4468197,11 36.7514384,11.7929622 39.5315914,13.3547843 C42.7026656,15.1335262 45.0797572,17.8859966 46.5900238,21.5254278 L47.2868831,23.2053507 L48.2605437,21.6676308 C50.7104777,17.7944083 53.5707575,15.0925524 56.9992082,13.4078091 C59.9614674,11.9496264 63.4069148,11.2410219 67.5273687,11.2410219 C75.600739,11.2410219 81.7826339,13.6295493 85.905516,18.3439383 C89.9482713,22.9619185 92,29.7611473 92,38.5536274 L92,91 L79.0486144,91 Z" id="Fill-7" fill="#5B6B78"></path>
            <polygon id="Fill-8" fill="#5B6B78" points="193 72 205 72 205 11 193 11"></polygon>
            <path d="M243,23.8557445 L233.58234,11 L219,11 L233.155587,30 C235.480905,26.9011379 238.957971,24.6484767 243,23.8557445" id="Fill-40" fill="#DD3B35"></path>
            <path d="M232.925737,49 L216,71 L230.36416,71 L242,55.8761373 C238.138303,54.7297353 234.917,52.2413151 232.925737,49" id="Fill-41" fill="#DD3B35"></path>
            <path d="M258.74243,30 L273,11 L258.599516,11 L249,23.8609312 C252.999193,24.6782354 256.443682,26.9188562 258.74243,30" id="Fill-42" fill="#DD3B35"></path>
            <path d="M278,71 L261.249562,49 C259.244211,52.3228931 255.950733,54.8569957 252,55.9835154 L263.569148,71 L278,71 Z" id="Fill-43" fill="#DD3B35"></path>
        </g>
    </g>
</svg>